<?xml version="1.0" encoding="UTF-8"?>
<svg id="Camada_1" data-name="Camada 1" xmlns="http://www.w3.org/2000/svg" viewBox="0 0 33.46 28">
  <defs>
    <style>
      .cls-1 {
        fill: #fff;
        stroke-width: 0px;
      }
    </style>
  </defs>
  <path class="cls-1" d="m26.85,22.88c-.9,0-1.63-.73-1.63-1.63s.73-1.63,1.63-1.63c1.84,0,3.34-1.5,3.34-3.34,0-1.04-.48-2.01-1.31-2.65-.51-.4-.74-1.06-.59-1.69.1-.41.15-.79.15-1.15,0-2.6-2.11-4.71-4.71-4.71-.8,0-1.6.21-2.3.61-.71.4-1.61.21-2.1-.44-1.44-1.9-3.62-2.98-6-2.98-4.15,0-7.52,3.38-7.52,7.52,0,.27.02.58.06.92.07.66-.26,1.3-.85,1.62-1.08.58-1.75,1.71-1.75,2.94,0,1.84,1.5,3.34,3.34,3.34.9,0,1.63.73,1.63,1.63s-.73,1.63-1.63,1.63c-3.64,0-6.61-2.96-6.61-6.61,0-2.06.95-3.97,2.54-5.21,0-.09,0-.18,0-.27C2.54,4.84,7.38,0,13.33,0c2.96,0,5.72,1.18,7.74,3.27.85-.3,1.75-.46,2.66-.46,4.4,0,7.98,3.58,7.98,7.98,0,.32-.02.63-.06.95,1.16,1.22,1.8,2.82,1.8,4.53,0,3.64-2.96,6.61-6.61,6.61Z"/>
  <path class="cls-1" d="m22.81,20.82c-.18-.41-.59-.67-1.04-.67h-3.35v-6.18c0-.94-.76-1.7-1.7-1.7s-1.7.76-1.7,1.7v6.18h-3.35c-.45,0-.85.26-1.04.67-.18.41-.11.89.19,1.22l5.04,5.59c.21.24.52.37.84.37s.63-.14.84-.37l5.04-5.59c.3-.33.38-.81.19-1.22Z"/>
</svg>