<?xml version="1.0" encoding="UTF-8"?>
<svg id="Camada_1" data-name="Camada 1" xmlns="http://www.w3.org/2000/svg" xmlns:xlink="http://www.w3.org/1999/xlink" viewBox="0 0 80 90">
  <defs>
    <style>
      .cls-1 {
        fill: url(#Gradiente_sem_nome_92);
        stroke-width: 0px;
      }
    </style>
    <linearGradient id="Gradiente_sem_nome_92" data-name="Gradiente sem nome 92" x1="1" y1="45" x2="79" y2="45" gradientUnits="userSpaceOnUse">
      <stop offset="0" stop-color="#984186"/>
      <stop offset=".99" stop-color="#f79831"/>
    </linearGradient>
  </defs>
  <path class="cls-1" d="m5.37.76c-1.15,0-2.26.45-3.08,1.26-.82.81-1.28,1.92-1.29,3.07v79.78c-.01,1.74,1.02,3.33,2.62,4.02,1.6.69,3.46.36,4.72-.84l31.68-29.52,31.68,29.52c1.27,1.17,3.11,1.48,4.69.79,1.58-.69,2.61-2.25,2.61-3.98V5.08c0-2.39-1.94-4.32-4.33-4.33H5.37Zm4.33,8.69h60.61v65.45l-27.31-25.49c-1.67-1.56-4.27-1.56-5.94,0l-27.36,25.49V9.45Z"/>
</svg>