<?xml version="1.0" encoding="UTF-8"?>
<svg xmlns="http://www.w3.org/2000/svg" xmlns:xlink="http://www.w3.org/1999/xlink" viewBox="0 0 95 95">
  <defs>
    <style>
      .cls-1 {
        fill: url(#Gradiente_sem_nome_92);
        mix-blend-mode: multiply;
      }

      .cls-1, .cls-2 {
        stroke-width: 0px;
      }

      .cls-3 {
        isolation: isolate;
      }

      .cls-2 {
        fill: #fff;
      }
    </style>
    <linearGradient id="Gradiente_sem_nome_92" data-name="Gradiente sem nome 92" x1=".64" y1="47.5" x2="94.36" y2="47.5" gradientUnits="userSpaceOnUse">
      <stop offset="0" stop-color="#984186"/>
      <stop offset=".99" stop-color="#f79831"/>
    </linearGradient>
  </defs>
  <g class="cls-3">
    <g id="Camada_1" data-name="Camada 1">
      <path class="cls-1" d="m94.36,47.5c0,25.88-20.98,46.86-46.86,46.86S.64,73.38.64,47.5,21.62.64,47.5.64s46.86,20.98,46.86,46.86"/>
      <path class="cls-2" d="m66.55,23.83h0c-.57.02-1.1.26-1.49.67l-4.33,4.55c-.39.42-.61.97-.59,1.54.02.57.26,1.11.68,1.51.42.39.97.61,1.54.59.57-.02,1.11-.26,1.51-.68l4.31-4.54c.4-.41.61-.97.6-1.54-.01-.57-.25-1.12-.67-1.51-.42-.4-.98-.61-1.56-.59Zm-12.38.5c-.79-.13-1.6.19-2.08.83,0,0-12.48,15.87-26.31,16.49-.15,0-.29.03-.43.06,0,0-1.97.47-3.57,2.15-1.59,1.68-2.65,4.8-1.36,8.68,1.29,3.88,3.97,5.81,6.23,6.36,2.27.54,4.18-.08,4.18-.08.2-.06.4-.15.57-.27.15-.1.34-.09.49-.18l5.44,11.56c.43.93,1.46,1.42,2.45,1.18,0,0,2.25-.55,4.46-1.18,1.11-.32,2.19-.64,3.07-.97.44-.17.8-.32,1.24-.59.22-.14.48-.25.83-.77.18-.26.4-.69.4-1.28,0-.58-.29-1.2-.6-1.53.24.26.13.17.08.08-.05-.09-.14-.24-.25-.42-.21-.37-.51-.91-.84-1.53-.67-1.24-1.52-2.86-2.35-4.46-.98-1.88-1.29-2.52-1.91-3.73,9.37-.9,18.45,1.26,18.45,1.26.77.22,1.6,0,2.15-.58.55-.58.74-1.42.48-2.18-3.09-9.14-6.18-18.27-9.14-27.43-.25-.76-.9-1.33-1.68-1.46Zm-1.29,6.18c2.26,6.93,4.57,13.83,6.9,20.72-4.02-1-13.48-2.58-24.14,1.11-1.59.4-2.28.31-3.8,1.11-.07.15-.12.3-.15.46-.74.39-1.55.48-2.29.84-.29.05-.96.15-1.75-.03-1.05-.25-2.24-.78-3.16-3.53-.92-2.75-.27-3.66.4-4.36.51-.54,1.12-.8,1.37-.9,14.04-.78,23.46-11.57,26.61-15.44Zm19.35,2.93c-.22,0-.45.03-.66.1l-5.99,1.89c-.54.18-1,.56-1.26,1.07-.26.51-.31,1.1-.13,1.65.37,1.13,1.58,1.75,2.71,1.39l5.98-1.89c.54-.18,1-.56,1.26-1.07.26-.51.31-1.1.13-1.65-.29-.88-1.11-1.48-2.03-1.48Zm-5.29,9.36c-1.01-.02-1.91.67-2.14,1.65-.27,1.16.45,2.31,1.6,2.59l6.12,1.45c1.15.27,2.31-.45,2.58-1.6.27-1.16-.44-2.31-1.6-2.59l-6.12-1.45c-.15-.03-.3-.05-.45-.06Zm-27.41,12.85c.52,1.03,1.2,2.37,2.47,4.8.84,1.61,1.69,3.24,2.38,4.52.08.14.13.23.2.36-.51.16-.93.31-1.51.48-1.27.36-1.77.47-2.6.68l-4.54-9.65c.55-.21,1.08-.45,1.64-.63.83-.2,1.47-.46,1.96-.56Z"/>
    </g>
  </g>
</svg>