<?xml version="1.0" encoding="UTF-8"?>
<svg id="Camada_1" data-name="Camada 1" xmlns="http://www.w3.org/2000/svg" xmlns:xlink="http://www.w3.org/1999/xlink" viewBox="0 0 80 90">
  <defs>
    <style>
      .cls-1 {
        fill: url(#Gradiente_sem_nome_92);
        stroke-width: 0px;
      }
    </style>
    <linearGradient id="Gradiente_sem_nome_92" data-name="Gradiente sem nome 92" x1="2.01" y1="45" x2="77.99" y2="45" gradientUnits="userSpaceOnUse">
      <stop offset="0" stop-color="#984186"/>
      <stop offset=".99" stop-color="#f79831"/>
    </linearGradient>
  </defs>
  <path class="cls-1" d="m40,0c-1.2,0-2.33.59-3.04,1.56,0,0-9.75,13.76-30.73,11.36-1.08-.12-2.15.22-2.96.94-.81.72-1.27,1.76-1.26,2.84v41.35c0,.14.02.28.04.41,0,0,.8,7.92,6,15.77,5.19,7.85,15.24,15.77,31.95,15.77s26.75-7.92,31.94-15.77c5.19-7.85,6-15.77,6-15.77.02-.14.03-.27.04-.41V16.7c0-1.08-.46-2.12-1.26-2.84-.81-.72-1.88-1.07-2.96-.94C52.79,15.32,43.07,1.56,43.07,1.56,42.36.58,41.21,0,40,0Zm0,8.67c3.15,3.47,12.87,10.89,30.39,10.88v38.2c-.01.11-.7,6.12-4.78,12.29-4.12,6.23-11.19,12.4-25.61,12.4s-21.5-6.17-25.62-12.4c-4.08-6.18-4.76-12.19-4.77-12.29V19.55c17.51,0,27.24-7.4,30.4-10.88Zm20.62,21.58c-1.01,0-1.99.39-2.7,1.11l-22.47,22.59-12.77-10.92c-.76-.66-1.76-.99-2.77-.91-1.01.08-1.94.55-2.6,1.32-.66.77-.98,1.77-.9,2.78.08,1.01.57,1.94,1.34,2.59l15.44,13.17c1.5,1.29,3.74,1.21,5.14-.19l24.96-25.07c.71-.71,1.11-1.68,1.11-2.68s-.4-1.97-1.11-2.68c-.71-.71-1.66-1.1-2.66-1.1Z"/>
</svg>