<?xml version="1.0" encoding="UTF-8"?>
<svg id="Camada_1" data-name="Camada 1" xmlns="http://www.w3.org/2000/svg" xmlns:xlink="http://www.w3.org/1999/xlink" viewBox="0 0 80 90">
  <defs>
    <style>
      .cls-1 {
        fill: url(#Gradiente_sem_nome_92);
        stroke-width: 0px;
      }
    </style>
    <linearGradient id="Gradiente_sem_nome_92" data-name="Gradiente sem nome 92" x1="1" y1="45" x2="79" y2="45" gradientUnits="userSpaceOnUse">
      <stop offset="0" stop-color="#984186"/>
      <stop offset=".99" stop-color="#f79831"/>
    </linearGradient>
  </defs>
  <path class="cls-1" d="m39.78.22c-4,.1-7.22,2.69-9.82,6.15-.07.31-.1.63-.1.95-7.08,2.1-12.82,5.36-15.94,9.37-4.54,5.83-5.62,11.83-5.62,11.83-.04.24-.06.49-.06.74,0,0,.11,7.22.17,14.95.06,3.87.06,7.86,0,11.13,0,3.27-.11,6.04-.17,6.57-.06.26-1.24,2.55-2.77,4.19-1.54,1.65-3.03,2.84-3.03,2.84-1.27,1.01-1.76,2.72-1.23,4.25.54,1.53,1.98,2.56,3.61,2.56h70.36c1.62,0,3.07-1.03,3.61-2.56.54-1.53.04-3.24-1.23-4.25,0,0-1.5-1.19-3.04-2.84-1.54-1.65-2.75-3.93-2.77-4.19-.06-.53-.15-3.3-.17-6.57v-11.13c.06-7.73.17-14.95.17-14.95,0-.25-.01-.5-.06-.74,0,0-1.09-6-5.62-11.83-3.09-3.97-8.75-7.2-15.71-9.32-.06-.35-.16-.7-.31-1.03C47.24,2.69,43.83.17,39.78.22Zm.24,12.47h.04c11.04.01,16.65,4.36,20.02,8.69,3.32,4.26,4.04,8.22,4.07,8.36,0,.55-.11,6.95-.15,14.41-.06,3.89-.06,7.91,0,11.24,0,3.33.06,5.76.21,7.33.26,2.48,1.78,3.79,3.01,5.4H12.88c1.23-1.61,2.75-2.91,3.01-5.4.17-1.57.19-4,.21-7.33v-11.24c-.06-7.46-.15-13.86-.15-14.41,0-.13.75-4.09,4.07-8.36,3.37-4.33,8.98-8.68,20.01-8.69Zm7.72,65.45c-1.02.04-1.97.48-2.66,1.22-2.01,2.16-3.5,2.76-4.85,2.75-1.35,0-3.16-.68-5.52-2.9-.74-.7-1.72-1.07-2.74-1.05-1.01.03-1.98.46-2.67,1.2-1.42,1.54-1.33,3.93.19,5.37,3.21,3.04,6.8,5.03,10.71,5.04,3.91.01,7.54-2.03,10.48-5.19.69-.74,1.06-1.73,1.03-2.74-.04-1.01-.47-1.97-1.22-2.66h0c-.74-.7-1.73-1.07-2.74-1.04Z"/>
</svg>