<?xml version="1.0" encoding="UTF-8"?>
<svg id="Camada_1" data-name="Camada 1" xmlns="http://www.w3.org/2000/svg" viewBox="0 0 122 70">
  <defs>
    <style>
      .cls-1 {
        fill: #fff;
        stroke-width: 0px;
      }
    </style>
  </defs>
  <path class="cls-1" d="m82.7,1.24c-2.02-.47-4.05-.91-6.16-1.21-.07-.01-.17-.02-.25-.03-2.99,2.17-5.73,4.56-8.21,7.13,2.74-.4,5.54-.65,8.4-.75,9.97-.36,19.45,1.25,28.01,4.31-6.18-4.18-13.62-7.48-21.8-9.45"/>
  <path class="cls-1" d="m79,22.85c11.29-5.24,23.1-7.46,34.25-6.97-9.6-4.17-20.62-6.37-32.26-5.95-5.74.21-11.29,1.04-16.54,2.4-2.62,3.46-4.79,7.18-6.43,11.1,2.53,2.45,5.29,4.76,8.27,6.89,3.88-2.82,8.12-5.34,12.71-7.47"/>
  <path class="cls-1" d="m65.22,31.37c-2.97-2.13-5.74-4.44-8.28-6.89-2.35,5.6-3.63,11.59-3.65,17.82,3.45-3.99,7.44-7.65,11.92-10.92"/>
  <path class="cls-1" d="m121.69,64.16c-.14,0-.28,0-.42,0-5.73,0-9.87-3.61-9.87-8.58v-.11c0-4.76,4.16-8.48,9.47-8.48.28,0,.56.01.83.02v-5.71c-.25-.01-.5-.01-.76-.01-10.41,0-18.26,6.14-18.26,14.29v.1c0,7.95,7.96,14.18,18.12,14.18.31,0,.6,0,.89-.02v-5.69Z"/>
  <path class="cls-1" d="m16.5,52.19c-6.14-1.29-7-1.91-7-3.82v-.08c0-1.41,1.58-2.53,4.57-2.53,1.52,0,3.52.41,4.91.92v-6.09c-1.3-.22-3.3-.48-4.81-.48-7.26,0-12.43,3.49-12.43,8.77v.08c0,5.77,4.61,7.39,11.77,8.88,5.93,1.25,6.5,2.07,6.5,3.7v.08c0,1.7-1.93,2.74-5.13,2.74-4.06,0-6.75-1.37-9.94-3.53l-4.63,4.53c4.27,3.11,9.03,4.65,14.41,4.65,7.66,0,13.04-3.24,13.04-9.01v-.08c0-5.07-4.06-7.19-11.27-8.72"/>
  <path class="cls-1" d="m34.4,54.76c.61-3.07,2.71-5.07,5.93-5.07s5.31,2.05,5.77,5.07h-11.7Zm5.93-10.49c-7.97,0-13.54,5.6-13.54,12.4v.09c0,7.29,6.08,12.31,14.3,12.31.24,0,1-.03,1.24-.03v-5.43c-.19,0-.93.04-1.14.04-3.47,0-5.92-1.6-6.69-4.66h18.89c.05-.63.1-1.03.1-1.7v-.08c0-6.76-4.02-12.93-13.16-12.93"/>
  <path class="cls-1" d="m78.12,56.01c0-6.45-4.01-11.47-12.48-11.47s-12.49,5.03-12.49,11.47v12.61h7.85v-13.08c.14-2.39,1.09-5.2,4.64-5.2s4.57,2.81,4.7,5.2v13.08h7.78v-12.61Z"/>
  <path class="cls-1" d="m90.88,44.4c-.35,0-1.53,0-1.85.02v5.76c1.51.01,3.58.27,4.5.74,1.36.7,2.06,1.88,2.09,3.49-1.85-.22-3.95-.36-5.76-.4-7.42-.19-11.08,2.22-11.82,6.08-.01.07-.03.14-.04.22,0,.03,0,.05-.01.08-.06.37-.09.76-.09,1.17v.09c0,4.72,4.24,7.29,9.39,7.29,3.78,0,6.39-1.2,8.28-3.02v2.75h7.51v-13.99c0-6.45-3.73-10.27-12.2-10.27m4.77,15.75c-.68,3.48-4.33,4.01-5.16,4.05-5.91.31-6.12-3.67-4.12-4.88,2.67-1.63,9.31-.71,9.31-.71,0,.23.06.83-.03,1.54"/>
  <g>
    <path class="cls-1" d="m62.97,12.69c-4.37,1.13-8.54,2.64-12.47,4.47,1.84,2.31,3.86,4.52,6.04,6.63,1.64-3.92,3.81-7.64,6.43-11.1Z"/>
    <path class="cls-1" d="m56.57,23.82h0s-.02-.02-.03-.03c0,0,0,0,0,0,.01,0,.02.02.03.03Z"/>
  </g>
</svg>